<?xml version="1.0" encoding="utf-8"?>
<svg width="12px" height="12px" viewBox="0 0 12 12" version="1.1" xmlns:xlink="http://www.w3.org/1999/xlink" xmlns="http://www.w3.org/2000/svg">
  <desc>Created with Lunacy</desc>
  <path d="M5.999 0L6.001 0C9.31416 0 12 2.68584 12 5.999L12 6.001C12 9.31416 9.31416 12 6.001 12L5.999 12C2.68584 12 0 9.31416 0 6.001L0 5.999C0 2.68584 2.68584 0 5.999 0Z" id="Rectangle-5" fill="#EE334B" stroke="none" />
  <path d="M6.36319 0.434295L5.94912 0L2.22666 3.90429L0.413613 2.00269L0 2.4365L1.81304 4.33811L1.81299 4.33817L2.22706 4.77246L2.22711 4.7724L2.22715 4.77244L2.64076 4.33862L2.64073 4.33858L6.36319 0.434295Z" transform="translate(2.892334 3.687866)" id="Combined-Shape" fill="#FFFFFF" fill-rule="evenodd" stroke="none" />
</svg>